<svg xmlns="http://www.w3.org/2000/svg" data-name="Layer 1" viewBox="0 0 64 64"><circle cx="32" cy="32" r="27" fill="#be1e2d"/><path fill="#2a292a" d="M40.4,57.66a27,27,0,0,1-29.3-8.58,8.68,8.68,0,0,1,5.83-2.24H30.68A8.69,8.69,0,0,1,39,53Z"/><path fill="#ffd2b4" d="M27.62,43v5.22a.9.9,0,0,1-.5.81L24.2,50.45a.9.9,0,0,1-.81,0L20.48,49a.9.9,0,0,1-.5-.81V43a.9.9,0,0,1,.9-.9h5.83A.9.9,0,0,1,27.62,43Z"/><path fill="#fff" d="M27.62,46.84v1.35a.9.9,0,0,1-.5.8L24.2,50.46a.89.89,0,0,1-.8,0L20.48,49a.9.9,0,0,1-.5-.8V46.84H18.08v1.35a2.78,2.78,0,0,0,1.55,2.51l2.91,1.46a2.83,2.83,0,0,0,2.52,0L28,50.7a2.78,2.78,0,0,0,1.55-2.51V46.84Z" opacity=".1"/><path fill="#ffd2b4" d="M23.8,19.38c10.92,0,10,10.29,10,10.29,1.6-.17,2.86.47,2.86,2.73s-1,2.72-2.24,2.85a.27.27,0,0,0-.26.26c-.37,3.52-2.86,6.1-5.32,7.82a8.74,8.74,0,0,1-10.07,0c-2.45-1.73-4.95-4.31-5.32-7.82a.27.27,0,0,0-.26-.26c-1.25-.13-2.24-.6-2.24-2.85s1.21-2.9,2.81-2.73C13.76,29.67,12.87,19.38,23.8,19.38Z"/><path fill="#262234" d="M27.62,44.06v1.43a8.73,8.73,0,0,1-7.63,0V44.06a8.73,8.73,0,0,0,7.63,0Z" opacity=".1"/><path fill="#2a292a" d="M34.77,24.14a10,10,0,0,0-.42-2.33,10.44,10.44,0,0,0,.17-3.92.71.71,0,0,0-.94-.52c-.23.09-.47.16-.72.24a4.47,4.47,0,0,0,0-1.08.73.73,0,0,0-1-.57,29.42,29.42,0,0,1-7.64,1.35H23.8c-5.81,0-10.53.29-11,6.83A28.85,28.85,0,0,0,13,29.41a20.54,20.54,0,0,0,.3,2.61c.17.69,2,.66,2.08,0s-.32-4,1.31-7a19.56,19.56,0,0,0,7.14,1.16A19.58,19.58,0,0,0,30.93,25c1.63,3.07,1.22,6.51,1.31,7s1.92.64,2.08,0a18.27,18.27,0,0,0,.27-2.33A29.34,29.34,0,0,0,34.77,24.14Z"/><path fill="#fff" d="M45.8,45a1.29,1.29,0,0,1-.92-.38,17.87,17.87,0,0,1,0-25.28,1.3,1.3,0,0,1,1.84,1.84,15.27,15.27,0,0,0,0,21.6A1.3,1.3,0,0,1,45.8,45Z"/><path fill="#fff" d="M49.53,41.29a1.29,1.29,0,0,1-.92-.38,12.61,12.61,0,0,1,0-17.83,1.3,1.3,0,0,1,1.84,1.84,10,10,0,0,0,0,14.15,1.3,1.3,0,0,1-.92,2.22Z"/><path fill="#fff" d="M53.25,37.57a1.29,1.29,0,0,1-.92-.38,7.35,7.35,0,0,1,0-10.38,1.3,1.3,0,1,1,1.84,1.84,4.75,4.75,0,0,0,0,6.71,1.3,1.3,0,0,1-.92,2.22Z"/><path fill="#611c24" d="M20.56,39.81a1.34,1.34,0,0,1-1.12-2.08,5.2,5.2,0,0,1,4.36-2.17,5.2,5.2,0,0,1,4.36,2.17A1.34,1.34,0,0,1,27,39.81Z"/><path fill="#be1e2d" d="M26.16,39.81H21.44A2.11,2.11,0,0,1,23.8,38,2.11,2.11,0,0,1,26.16,39.81Z"/><path fill="#fff" d="M26.67,36.33v.29a.37.37,0,0,1-.36.37h-5a.37.37,0,0,1-.36-.37v-.29a5.73,5.73,0,0,1,5.74,0Z"/><path fill="#2a292a" d="M28.17 33.68a.8.8 0 0 1-.39-.1L25.64 32.4a.8.8 0 0 1 0-1.4l2.15-1.19a.8.8 0 0 1 .78 1.4l-.88.49.88.49a.8.8 0 0 1-.39 1.5zM19.43 33.68a.8.8 0 0 1-.39-1.5l.88-.49L19 31.21a.8.8 0 0 1 .78-1.4L22 31a.8.8 0 0 1 0 1.4l-2.15 1.19A.8.8 0 0 1 19.43 33.68z"/></svg>